# xmcd
#
# Track frame offsets:
#  150
#  16421
#  31593
#  46610
#  73410
#  91897
#  109797
#  128274
#  144881
#  162237
#  175002
#  196192
#
# Disc length: 2855 seconds
#
# Revision: 0
# Processed by: cddbd v1.5.1PL2 Copyright (c) Steve Scherf et al.
# Submitted via: Collectorz.com_Music_Collector 6.11
#
DISCID=890b250c
DTITLE=Mitch Kashmar - Wake Up and Worry
DYEAR=2006
DGENRE=Blues -  Blues Harmonica
TTITLE0=I Got No Reason
TTITLE1=Dead Presidents
TTITLE2=Green Bananas
TTITLE3=Funky Dee
TTITLE4=Wake Up and Worry
TTITLE5=Night Creeper
TTITLE6=Half Pint-A-Whiskey
TTITLE7=Black Dog Blues
TTITLE8=You Dogged Me
TTITLE9=Up The Line
TTITLE10=I'm Sorry
TTITLE11=The Waddle
EXTD=
EXTT0=
EXTT1=
EXTT2=
EXTT3=
EXTT4=
EXTT5=
EXTT6=
EXTT7=
EXTT8=
EXTT9=
EXTT10=
EXTT11=
PLAYORDER=
